<svg xmlns="http://www.w3.org/2000/svg" version="1.1" viewBox="28.25 631 1439.31 237.97">
  <defs>
    <style>
      .cls-1 {
        opacity: .5;
      }

      .cls-1, .cls-2 {
        fill: #219ebc;
      }

      .cls-3 {
        fill: #231f20;
      }

      .cls-4 {
        fill: #334854;
      }
    </style>
  </defs>
  <!-- Generator: Adobe Illustrator 28.6.0, SVG Export Plug-In . SVG Version: 1.2.0 Build 709)  -->
  <g>
    <g id="Layer_1">
      <g>
        <g>
          <path class="cls-1" d="M68.66,750.16c0-23.2,8.07-44.55,21.55-61.4l-15.95-12.85c-16.87,21-26.03,46.92-26.03,74.24,0,31.74,12.36,61.58,34.81,84.04.17.16.34.34.51.5,10.91,10.57,34.48,23.34,34.48,23.34l8.49-18.21c-34.1-15.48-57.87-49.85-57.87-89.67ZM251.11,666.12c-22.44-22.45-52.29-34.81-84.03-34.81-27.58,0-53.73,9.33-74.84,26.5l20.09,10.59c15.66-10.53,34.5-16.67,54.75-16.67,54.26,0,98.41,44.15,98.41,98.41s-44.15,98.41-98.41,98.41c-6.2,0-12.27-.58-18.15-1.68l-18.88,16.25c11.8,3.85,24.26,5.85,37.02,5.85,31.74,0,61.59-12.36,84.03-34.81,22.45-22.45,34.81-52.29,34.81-84.04s-12.36-61.59-34.81-84.04Z"/>
          <path class="cls-2" d="M68.66,750.16c0-23.2,8.07-44.55,21.55-61.4l-15.95-12.85c-16.87,21-26.03,46.92-26.03,74.24,0,31.74,12.36,61.58,34.81,84.04.17.16.34.34.51.5,10.91,10.57,34.48,23.34,34.48,23.34l8.49-18.21c-34.1-15.48-57.87-49.85-57.87-89.67ZM251.11,666.12c-22.44-22.45-52.29-34.81-84.03-34.81-27.58,0-53.73,9.33-74.84,26.5l20.09,10.59c15.66-10.53,34.5-16.67,54.75-16.67,54.26,0,98.41,44.15,98.41,98.41s-44.15,98.41-98.41,98.41c-6.2,0-12.27-.58-18.15-1.68l-18.88,16.25c11.8,3.85,24.26,5.85,37.02,5.85,31.74,0,61.59-12.36,84.03-34.81,22.45-22.45,34.81-52.29,34.81-84.04s-12.36-61.59-34.81-84.04Z"/>
          <polygon class="cls-2" points="172.81 750.07 165.71 765.06 162.84 761.96 167.83 751.27 109.4 704.22 109.4 704.21 96.71 690.51 93.78 687.35 97.14 690.01 172.81 750.07"/>
          <polygon class="cls-2" points="254.33 748 147.21 840.28 147.2 840.28 141.5 845.2 141.5 845.2 123.59 860.63 132.19 842.18 134.79 836.61 164.54 772.82 175.41 749.51 98.97 687.95 95.31 685.01 94.19 684.1 78.22 671.24 73.65 667.56 81.5 659.09 87.25 662.12 106.79 672.42 112.78 675.58 169.13 705.3 143.69 677.98 254.33 748"/>
          <polygon class="cls-2" points="254.33 748 147.21 840.28 147.2 840.28 141.5 845.2 141.5 845.2 123.59 860.63 132.19 842.18 134.79 836.61 164.54 772.82 175.41 749.51 98.97 687.95 95.31 685.01 94.19 684.1 78.22 671.24 73.65 667.56 73.44 667.39 28.25 631 81.5 659.09 87.25 662.12 106.79 672.42 112.78 675.58 169.13 705.3 143.69 677.98 254.33 748"/>
          <polygon class="cls-2" points="172.81 750.07 165.71 765.06 162.84 761.96 109.4 704.22 109.4 704.21 96.71 690.51 93.78 687.35 97.14 690.01 172.81 750.07"/>
          <polygon class="cls-4" points="172.81 750.07 165.71 765.06 162.84 761.96 109.4 704.22 109.4 704.21 96.71 690.51 93.78 687.35 97.14 690.01 172.81 750.07"/>
        </g>
        <g>
          <g>
            <path class="cls-3" d="M363.95,750.16v-79.42h19.06v79.42h-19.06ZM373.31,687.23v-16.48h50.08v16.48h-50.08ZM373.31,721.88v-15.76h45.82v15.76h-45.82Z"/>
            <path class="cls-3" d="M444.59,750.16v-79.42h33.27c4.34,0,8.29.34,11.84,1.02,3.55.68,6.69,1.68,9.41,3.01,2.72,1.32,5.03,2.93,6.93,4.81,1.89,1.89,3.32,4.05,4.26,6.5.95,2.45,1.42,5.16,1.42,8.12,0,2.81-.44,5.34-1.3,7.58-.87,2.25-2.19,4.21-3.97,5.9s-4.01,3.05-6.69,4.09c-2.68,1.04-5.8,1.81-9.35,2.29v1.81c4.5.48,7.99,1.5,10.48,3.07s4.4,3.63,5.74,6.2c1.34,2.57,2.53,5.66,3.55,9.27l4.5,15.76h-21.19l-3.43-14.56c-.71-3.21-1.68-5.69-2.9-7.46-1.22-1.76-2.78-2.99-4.68-3.67-1.89-.68-4.26-1.02-7.1-1.02h-11.72v26.71h-19.06ZM463.65,709.13h12.91c4.81,0,8.56-.96,11.25-2.89,2.68-1.93,4.03-4.93,4.03-9.02s-1.22-6.98-3.67-8.9c-2.45-1.93-6.16-2.89-11.13-2.89h-13.38v23.7Z"/>
            <path class="cls-3" d="M529.01,750.16l26.52-79.42h27.94l26.52,79.42h-20.84l-18.71-64.26h-1.89l-18.71,64.26h-20.84ZM544.75,735.24v-13h52.33v13h-52.33Z"/>
            <path class="cls-3" d="M629.29,750.16v-79.42h28.54l20.37,57.16h.59l19.89-57.16h27.23v79.42h-18l1.07-59.68h-1.3l-22.62,59.68h-15.63l-22.14-59.68h-1.3l1.07,59.68h-17.76Z"/>
            <path class="cls-3" d="M751.84,750.16v-79.42h19.18v79.42h-19.18ZM765.69,686.26v-15.52h47.83v15.52h-47.83ZM765.69,717.19v-14.08h42.15v14.08h-42.15ZM765.69,750.16v-15.64h48.19v15.64h-48.19Z"/>
          </g>
          <g>
            <path class="cls-3" d="M897.27,750.13v-79.47h19.01v79.47h-19.01Z"/>
            <path class="cls-3" d="M941.65,750.13v-79.47h27.93l19.93,57.19h.58l19.47-57.19h26.66v79.47h-17.62l1.04-59.72h-1.27l-22.14,59.72h-15.3l-21.67-59.72h-1.27l1.04,59.72h-17.38Z"/>
            <path class="cls-3" d="M1061.6,750.13v-79.47h18.66v79.47h-18.66ZM1075.28,728.34v-14.93h17.04c5.02,0,8.77-1.08,11.24-3.25,2.47-2.17,3.71-5.82,3.71-10.96,0-4.49-1.14-7.9-3.42-10.23-2.28-2.33-5.89-3.49-10.84-3.49h-17.73v-14.81h18.31c4.94,0,9.41.6,13.39,1.81,3.98,1.2,7.4,2.99,10.26,5.36,2.86,2.37,5.04,5.38,6.55,9.03,1.51,3.65,2.26,7.93,2.26,12.82,0,6.26-1.37,11.52-4.11,15.77-2.74,4.26-6.8,7.46-12.17,9.63-5.37,2.17-12.07,3.25-20.11,3.25h-14.37Z"/>
            <path class="cls-3" d="M1140.29,750.13l25.96-79.47h27.35l25.96,79.47h-20.4l-18.31-64.29h-1.85l-18.31,64.29h-20.4ZM1155.71,735.2v-13h51.23v13h-51.23Z"/>
            <path class="cls-3" d="M1274.38,751.82c-6.03,0-11.44-.84-16.23-2.53-4.79-1.69-8.87-4.25-12.23-7.71-3.36-3.45-5.91-7.69-7.65-12.7-1.74-5.02-2.61-10.9-2.61-17.64s.89-12.96,2.67-18.18c1.78-5.22,4.35-9.63,7.71-13.24,3.36-3.61,7.32-6.32,11.88-8.13,4.56-1.81,9.62-2.71,15.18-2.71,4.4,0,8.44.56,12.11,1.69,3.67,1.12,6.86,2.79,9.56,5,2.7,2.21,4.81,4.86,6.32,7.95,1.51,3.09,2.3,6.6,2.38,10.54l-17.27,4.94c0-3.29-.68-5.98-2.03-8.07-1.35-2.09-3.05-3.67-5.1-4.76-2.05-1.08-4.27-1.63-6.66-1.63-1.93,0-3.92.42-5.97,1.26-2.05.84-3.92,2.25-5.62,4.21-1.7,1.97-3.05,4.56-4.06,7.77-1,3.21-1.51,7.22-1.51,12.04,0,6.26.85,11.32,2.55,15.17,1.7,3.85,4.06,6.68,7.07,8.49s6.33,2.71,9.97,2.71c4.02,0,7.13-.9,9.33-2.71s3.77-4.07,4.69-6.8c.93-2.73,1.43-5.5,1.51-8.31l16.23,2.65c-.08,4.33-.7,8.39-1.85,12.16-1.16,3.77-3,7.04-5.5,9.81-2.51,2.77-5.81,4.92-9.91,6.44-4.1,1.52-9.08,2.29-14.95,2.29Z"/>
            <path class="cls-3" d="M1320.97,686.8v-16.13h63.51v16.13h-63.51ZM1343.22,750.13v-79.47h18.77v79.47h-18.77Z"/>
            <path class="cls-3" d="M1433.85,751.82c-4.95,0-9.43-.48-13.44-1.44-4.02-.96-7.5-2.43-10.43-4.39-2.94-1.97-5.25-4.47-6.95-7.53-1.7-3.05-2.71-6.58-3.01-10.6l16.34-5.66c.23,3.37,1.16,6.18,2.78,8.43,1.62,2.25,3.8,3.91,6.55,5,2.74,1.08,5.81,1.63,9.21,1.63s5.97-.42,8.17-1.26c2.2-.84,3.86-1.93,4.98-3.25,1.12-1.32,1.68-2.75,1.68-4.27,0-1.76-.74-3.23-2.2-4.39-1.47-1.16-3.48-2.17-6.03-3.01s-5.52-1.67-8.92-2.47c-3.86-.96-7.65-2.01-11.36-3.13-3.71-1.12-7.07-2.59-10.08-4.39-3.01-1.81-5.39-4.13-7.13-6.98-1.74-2.85-2.61-6.44-2.61-10.78,0-4.9,1.2-9.15,3.59-12.76,2.39-3.61,5.91-6.44,10.55-8.49s10.35-3.07,17.15-3.07,12.44,1,17.15,3.01c4.71,2.01,8.34,4.8,10.89,8.37,2.55,3.57,3.94,7.73,4.17,12.46l-16.69,4.94c0-2.33-.37-4.37-1.1-6.14-.74-1.76-1.76-3.23-3.07-4.4-1.31-1.16-2.94-2.05-4.87-2.65-1.93-.6-4.13-.9-6.61-.9-2.94,0-5.43.36-7.48,1.08-2.05.72-3.57,1.67-4.58,2.83-1,1.16-1.51,2.51-1.51,4.03,0,1.93.79,3.51,2.38,4.76,1.58,1.25,3.75,2.29,6.49,3.13,2.74.84,5.77,1.67,9.1,2.47,3.32.72,6.76,1.63,10.31,2.71,3.55,1.08,6.88,2.51,9.97,4.27,3.09,1.77,5.58,4.15,7.48,7.16,1.89,3.01,2.84,6.8,2.84,11.38,0,4.9-1.26,9.17-3.77,12.82-2.51,3.65-6.28,6.48-11.3,8.49-5.02,2.01-11.24,3.01-18.66,3.01Z"/>
          </g>
          <g>
            <g>
              <path class="cls-3" d="M637.66,829.06v-39.78h6.53v39.78h-6.53ZM642.27,817.79v-6.75h6.9c2.19,0,3.84-.59,4.96-1.78,1.11-1.18,1.67-3.14,1.67-5.88,0-2.45-.51-4.3-1.53-5.54-1.02-1.24-2.61-1.87-4.77-1.87h-7.22v-6.69h7.4c1.95,0,3.71.3,5.28.9,1.57.6,2.91,1.49,4.02,2.65,1.11,1.17,1.96,2.65,2.53,4.46.58,1.81.87,3.92.87,6.33,0,3.09-.53,5.7-1.6,7.8-1.07,2.11-2.64,3.7-4.73,4.76-2.09,1.06-4.68,1.6-7.79,1.6h-5.98Z"/>
              <path class="cls-3" d="M678.58,829.06v-39.78h12.24c1.64,0,3.14.17,4.5.51,1.35.34,2.55.84,3.59,1.51,1.04.66,1.91,1.46,2.63,2.38.72.92,1.25,2,1.6,3.22.35,1.23.53,2.6.53,4.13,0,1.37-.16,2.62-.48,3.77-.32,1.15-.81,2.14-1.48,2.98-.67.84-1.52,1.53-2.56,2.05-1.04.52-2.21.92-3.52,1.21v.84c1.58.24,2.83.72,3.75,1.45s1.64,1.71,2.17,2.95c.53,1.25,1,2.79,1.39,4.64l1.83,8.14h-7.26l-1.37-7.47c-.3-1.61-.72-2.87-1.23-3.8-.52-.92-1.17-1.58-1.96-1.96-.79-.38-1.75-.57-2.88-.57h-4.93v13.8h-6.53ZM685.11,808.75h5.3c2.07,0,3.66-.52,4.77-1.57,1.11-1.04,1.67-2.65,1.67-4.82s-.52-3.84-1.55-4.88c-1.04-1.04-2.62-1.57-4.75-1.57h-5.44v12.84Z"/>
              <path class="cls-3" d="M721.01,829.06v-39.78h6.67v39.78h-6.67Z"/>
              <path class="cls-3" d="M753.26,829.06l-9.96-39.78h7.13l7.17,32.48h.59l7.17-32.48h7.08l-10,39.78h-9.18Z"/>
              <path class="cls-3" d="M785.46,829.06l10.32-39.78h9.64l10.28,39.78h-7.13l-7.67-32.91h-.64l-7.63,32.91h-7.17ZM791.26,821.22v-5.97h19.6v5.97h-19.6Z"/>
              <path class="cls-3" d="M828.76,796.57v-7.29h24.44v7.29h-24.44ZM837.67,829.06v-39.78h6.58v39.78h-6.58Z"/>
              <path class="cls-3" d="M868.78,829.06v-39.78h6.58v39.78h-6.58ZM873.3,796.27v-6.99h18.59v6.99h-18.59ZM873.3,812.18v-6.45h16.44v6.45h-16.44ZM873.3,829.06v-7.05h18.73v7.05h-18.73Z"/>
            </g>
            <g>
              <path class="cls-3" d="M945.33,829.43v-39.78h6.74v39.78h-6.74ZM946.7,829.43v-7.29h18.58v7.29h-18.58Z"/>
              <path class="cls-3" d="M981.08,829.43v-39.78h6.89v39.78h-6.89Z"/>
              <path class="cls-3" d="M1006.69,829.43v-39.78h10.19l8.68,29.95h.24l8.54-29.95h9.72v39.78h-6.37l.38-30.98h-.47l-9.43,30.98h-5.75l-9.29-30.98h-.47l.38,30.98h-6.32Z"/>
              <path class="cls-3" d="M1062.77,829.43v-39.78h6.89v39.78h-6.89Z"/>
              <path class="cls-3" d="M1085.78,796.95v-7.29h25.23v7.29h-25.23ZM1094.98,829.43v-39.78h6.79v39.78h-6.79Z"/>
              <path class="cls-3" d="M1127.1,829.43v-39.78h6.79v39.78h-6.79ZM1131.77,796.65v-6.99h19.2v6.99h-19.2ZM1131.77,812.56v-6.45h16.98v6.45h-16.98ZM1131.77,829.43v-7.05h19.34v7.05h-19.34Z"/>
              <path class="cls-3" d="M1168.18,829.43v-39.78h6.74v39.78h-6.74ZM1171.38,829.43v-7.05h9.1c1.73,0,3.18-.49,4.36-1.48,1.18-.98,2.06-2.42,2.64-4.31.58-1.89.87-4.2.87-6.93,0-2.25-.18-4.19-.54-5.82-.36-1.63-.9-2.97-1.63-4.04-.72-1.06-1.65-1.85-2.78-2.35-1.13-.5-2.45-.75-3.96-.75h-8.06v-7.05h7.83c3.77,0,6.85.78,9.24,2.35,2.39,1.57,4.15,3.81,5.28,6.72,1.13,2.91,1.7,6.4,1.7,10.46,0,3.05-.28,5.71-.83,7.96-.55,2.25-1.3,4.16-2.26,5.73-.96,1.57-2.08,2.84-3.35,3.83-1.27.98-2.62,1.69-4.03,2.11s-2.85.63-4.29.63h-9.29Z"/>
            </g>
          </g>
        </g>
      </g>
    </g>
  </g>
</svg>