<?xml version="1.0" encoding="UTF-8"?>
<svg id="uuid-db857f7e-409c-4fa5-99b4-7437a3c29b54" data-name="Layer_1" xmlns="http://www.w3.org/2000/svg" width="1478" height="200.48" viewBox="0 0 1478 200.48">
  <g>
    <path d="M34.04,100.37c0-19.55,6.8-37.53,18.15-51.72l-13.44-10.82c-14.21,17.69-21.92,39.52-21.92,62.54,0,26.74,10.41,51.88,29.32,70.79.14.14.28.28.43.42,9.19,8.9,29.05,19.66,29.05,19.66l7.16-15.34c-28.72-13.04-48.75-41.99-48.75-75.53ZM187.73,29.59C168.82,10.68,143.68.27,116.94.27c-23.23,0-45.26,7.86-63.04,22.33l16.92,8.92c13.2-8.87,29.06-14.04,46.12-14.04,45.71,0,82.9,37.19,82.9,82.9s-37.19,82.9-82.9,82.9c-5.22,0-10.33-.49-15.29-1.41l-15.9,13.69c9.94,3.25,20.43,4.93,31.19,4.93,26.74,0,51.88-10.41,70.79-29.32,18.91-18.91,29.32-44.05,29.32-70.79s-10.41-51.88-29.32-70.79Z" fill="#219ebc" opacity=".5"/>
    <path d="M34.04,100.37c0-19.55,6.8-37.53,18.15-51.72l-13.44-10.82c-14.21,17.69-21.92,39.52-21.92,62.54,0,26.74,10.41,51.88,29.32,70.79.14.14.28.28.43.42,9.19,8.9,29.05,19.66,29.05,19.66l7.16-15.34c-28.72-13.04-48.75-41.99-48.75-75.53ZM187.73,29.59C168.82,10.68,143.68.27,116.94.27c-23.23,0-45.26,7.86-63.04,22.33l16.92,8.92c13.2-8.87,29.06-14.04,46.12-14.04,45.71,0,82.9,37.19,82.9,82.9s-37.19,82.9-82.9,82.9c-5.22,0-10.33-.49-15.29-1.41l-15.9,13.69c9.94,3.25,20.43,4.93,31.19,4.93,26.74,0,51.88-10.41,70.79-29.32,18.91-18.91,29.32-44.05,29.32-70.79s-10.41-51.88-29.32-70.79Z" fill="#219ebc"/>
    <polygon points="121.77 100.3 115.8 112.92 113.38 110.31 117.57 101.31 68.36 61.68 68.36 61.67 57.67 50.13 55.2 47.46 58.03 49.71 121.77 100.3" fill="#219ebc"/>
    <polygon points="190.44 98.56 100.2 176.29 100.2 176.29 95.4 180.43 95.4 180.43 80.31 193.43 87.56 177.89 89.75 173.2 114.81 119.46 123.97 99.83 59.57 47.97 56.49 45.49 55.55 44.73 42.09 33.89 38.25 30.8 44.86 23.66 49.7 26.21 66.16 34.89 71.2 37.55 118.67 62.59 97.24 39.58 190.44 98.56" fill="#219ebc"/>
    <polygon points="190.44 98.56 100.2 176.29 100.2 176.29 95.4 180.43 95.4 180.43 80.31 193.43 87.56 177.89 89.75 173.2 114.81 119.46 123.97 99.83 59.57 47.97 56.49 45.49 55.55 44.73 42.09 33.89 38.25 30.8 38.06 30.65 0 0 44.86 23.66 49.7 26.21 66.16 34.89 71.2 37.55 118.67 62.59 97.24 39.58 190.44 98.56" fill="#219ebc"/>
    <polygon points="121.77 100.3 115.8 112.92 113.38 110.31 68.36 61.68 68.36 61.67 57.67 50.13 55.2 47.46 58.03 49.71 121.77 100.3" fill="#219ebc"/>
    <polygon points="121.77 100.3 115.8 112.92 113.38 110.31 68.36 61.68 68.36 61.67 57.67 50.13 55.2 47.46 58.03 49.71 121.77 100.3" fill="#334854"/>
  </g>
  <g>
    <g>
      <path d="M253.91,148.52V58.71h21.56v89.81h-21.56ZM264.48,77.35v-18.64h56.64v18.64h-56.64ZM264.48,116.54v-17.83h51.82v17.83h-51.82Z" fill="#231f20"/>
      <path d="M345.09,148.52V58.71h37.62c4.91,0,9.37.39,13.39,1.16,4.02.77,7.56,1.91,10.64,3.4,3.08,1.5,5.69,3.31,7.83,5.44,2.14,2.13,3.75,4.58,4.82,7.35,1.07,2.77,1.61,5.83,1.61,9.18,0,3.18-.49,6.03-1.47,8.57-.98,2.54-2.48,4.76-4.49,6.67s-4.53,3.45-7.56,4.63c-3.04,1.18-6.56,2.04-10.58,2.59v2.04c5.09.54,9.04,1.7,11.85,3.47,2.81,1.77,4.98,4.11,6.49,7.01,1.52,2.9,2.86,6.4,4.02,10.48l5.09,17.83h-23.97l-3.88-16.46c-.8-3.63-1.9-6.44-3.28-8.44-1.39-1.99-3.15-3.38-5.29-4.15-2.14-.77-4.82-1.16-8.03-1.16h-13.26v30.21h-21.56ZM366.65,102.12h14.59c5.44,0,9.68-1.09,12.72-3.27,3.03-2.18,4.55-5.58,4.55-10.21s-1.38-7.89-4.15-10.07c-2.77-2.18-6.96-3.27-12.59-3.27h-15.13v26.81Z" fill="#231f20"/>
      <path d="M440.55,148.52l29.99-89.81h31.6l29.99,89.81h-23.57l-21.16-72.66h-2.14l-21.16,72.66h-23.57ZM458.36,131.64v-14.7h59.18v14.7h-59.18Z" fill="#231f20"/>
      <path d="M553.96,148.52V58.71h32.27l23.03,64.63h.67l22.49-64.63h30.8v89.81h-20.35l1.21-67.49h-1.47l-25.57,67.49h-17.67l-25.04-67.49h-1.47l1.2,67.49h-20.08Z" fill="#231f20"/>
      <path d="M692.54,148.52V58.71h21.69v89.81h-21.69ZM708.21,76.26v-17.55h54.09v17.55h-54.09ZM708.21,111.23v-15.92h47.67v15.92h-47.67ZM708.21,148.52v-17.69h54.5v17.69h-54.5Z" fill="#231f20"/>
    </g>
    <g>
      <path d="M828.35,148.49V58.63h21.49v89.86h-21.49Z" fill="#231f20"/>
      <path d="M878.55,148.49V58.63h31.58l22.54,64.67h.66l22.02-64.67h30.14v89.86h-19.92l1.18-67.53h-1.44l-25.03,67.53h-17.3l-24.51-67.53h-1.44l1.18,67.53h-19.66Z" fill="#231f20"/>
      <path d="M1014.19,148.49V58.63h21.1v89.86h-21.1ZM1029.65,123.84v-16.88h19.27c5.68,0,9.92-1.23,12.71-3.68,2.79-2.45,4.19-6.58,4.19-12.39,0-5.08-1.29-8.94-3.87-11.57-2.58-2.63-6.66-3.95-12.25-3.95h-20.05v-16.75h20.71c5.59,0,10.64.68,15.14,2.04,4.5,1.36,8.37,3.38,11.6,6.06,3.23,2.68,5.7,6.08,7.4,10.21,1.7,4.13,2.56,8.96,2.56,14.5,0,7.08-1.55,13.03-4.65,17.84-3.1,4.81-7.69,8.44-13.76,10.89-6.07,2.45-13.65,3.68-22.74,3.68h-16.25Z" fill="#231f20"/>
      <path d="M1103.18,148.49l29.36-89.86h30.93l29.36,89.86h-23.07l-20.71-72.71h-2.1l-20.71,72.71h-23.07ZM1120.61,131.6v-14.7h57.93v14.7h-57.93Z" fill="#231f20"/>
      <path d="M1254.81,150.39c-6.82,0-12.93-.95-18.35-2.86-5.42-1.91-10.03-4.81-13.83-8.71-3.8-3.9-6.68-8.69-8.65-14.36-1.97-5.67-2.95-12.32-2.95-19.95s1-14.66,3.01-20.56c2.01-5.9,4.91-10.89,8.71-14.98,3.8-4.08,8.28-7.15,13.43-9.19,5.15-2.04,10.88-3.06,17.17-3.06,4.98,0,9.54.64,13.7,1.91,4.15,1.27,7.75,3.16,10.81,5.65,3.06,2.5,5.44,5.49,7.14,8.99,1.7,3.5,2.6,7.47,2.69,11.91l-19.53,5.58c0-3.72-.77-6.76-2.29-9.12-1.53-2.36-3.45-4.15-5.77-5.38-2.32-1.23-4.83-1.84-7.54-1.84-2.18,0-4.44.48-6.75,1.43-2.32.95-4.44,2.54-6.36,4.77-1.92,2.23-3.45,5.15-4.59,8.78-1.14,3.63-1.7,8.17-1.7,13.62,0,7.08.96,12.8,2.88,17.16,1.92,4.36,4.59,7.56,7.99,9.6,3.41,2.04,7.16,3.06,11.27,3.06,4.54,0,8.06-1.02,10.55-3.06,2.49-2.04,4.26-4.61,5.31-7.69,1.05-3.08,1.62-6.22,1.7-9.39l18.35,3c-.09,4.9-.79,9.49-2.1,13.75-1.31,4.27-3.39,7.96-6.23,11.1-2.84,3.13-6.58,5.56-11.21,7.28-4.63,1.72-10.27,2.59-16.91,2.59Z" fill="#231f20"/>
      <path d="M1307.49,76.87v-18.25h71.82v18.25h-71.82ZM1332.66,148.49V58.63h21.23v89.86h-21.23Z" fill="#231f20"/>
      <path d="M1435.15,150.39c-5.59,0-10.66-.54-15.2-1.63-4.54-1.09-8.48-2.75-11.79-4.97-3.32-2.22-5.94-5.06-7.86-8.51-1.92-3.45-3.06-7.44-3.41-11.98l18.48-6.4c.26,3.81,1.31,6.99,3.15,9.53,1.83,2.54,4.3,4.43,7.4,5.65,3.1,1.23,6.57,1.84,10.42,1.84s6.75-.48,9.24-1.43,4.37-2.18,5.63-3.68c1.27-1.5,1.9-3.11,1.9-4.83,0-2-.83-3.65-2.49-4.97-1.66-1.31-3.93-2.45-6.81-3.4-2.88-.95-6.25-1.88-10.09-2.79-4.37-1.09-8.65-2.27-12.84-3.54-4.19-1.27-7.99-2.93-11.4-4.97-3.41-2.04-6.09-4.67-8.06-7.9-1.97-3.22-2.95-7.28-2.95-12.19,0-5.54,1.35-10.35,4.06-14.43,2.71-4.08,6.68-7.28,11.93-9.6,5.24-2.31,11.71-3.47,19.4-3.47s14.07,1.14,19.4,3.4c5.33,2.27,9.44,5.42,12.32,9.46,2.88,4.04,4.46,8.74,4.72,14.09l-18.87,5.58c0-2.63-.42-4.95-1.25-6.94-.83-2-1.99-3.65-3.47-4.97-1.49-1.31-3.32-2.31-5.5-3-2.19-.68-4.67-1.02-7.47-1.02-3.32,0-6.14.41-8.45,1.23-2.32.82-4.04,1.88-5.18,3.2-1.14,1.32-1.7,2.84-1.7,4.56,0,2.18.9,3.97,2.69,5.38,1.79,1.41,4.24,2.59,7.34,3.54,3.1.95,6.53,1.88,10.29,2.79,3.76.82,7.64,1.84,11.66,3.06,4.02,1.23,7.78,2.84,11.27,4.83,3.49,2,6.31,4.7,8.45,8.1,2.14,3.4,3.21,7.69,3.21,12.87,0,5.54-1.42,10.37-4.26,14.5-2.84,4.13-7.1,7.33-12.78,9.6-5.68,2.27-12.71,3.4-21.1,3.4Z" fill="#231f20"/>
    </g>
  </g>
</svg>